/* XPM */
static char *linux[] = {
/* columns rows colors chars-per-pixel */
"60 20 176 2 ",
"   c black",
".  c #020202",
"X  c #030302",
"o  c #040404",
"O  c #070707",
"+  c #0A0A09",
"@  c #0B0B0B",
"#  c #0C0C0C",
"$  c gray6",
"%  c #110E04",
"&  c #141000",
"*  c #0B0C12",
"=  c #0D0F18",
"-  c gray7",
";  c #191919",
":  c #1A1918",
">  c gray10",
",  c #1E1D1C",
"<  c #1E1E1E",
"1  c #2E2706",
"2  c #382E01",
"3  c #3B330C",
"4  c #21211F",
"5  c #252423",
"6  c #252523",
"7  c #272625",
"8  c #252527",
"9  c #282727",
"0  c #252528",
"q  c #21232F",
"w  c #282828",
"e  c gray16",
"r  c #2A2A2A",
"t  c #2F2E2C",
"y  c #2C2E37",
"u  c #313131",
"i  c #323232",
"p  c #343331",
"a  c #363530",
"s  c #3A3937",
"d  c gray22",
"f  c #3C3B38",
"g  c #3E3D3B",
"h  c #5E5015",
"j  c #65581E",
"k  c #6D5E1D",
"l  c #42403E",
"z  c #5D5531",
"x  c #3F3F40",
"c  c #464544",
"v  c #484848",
"b  c #4C4B48",
"n  c #4F4D4B",
"m  c #585440",
"M  c #5C5740",
"N  c gray32",
"B  c #565552",
"V  c #595754",
"C  c #5A5957",
"Z  c #5B5A57",
"A  c #5C5B57",
"S  c #5F5D59",
"D  c gray37",
"F  c #615F5C",
"G  c #78714C",
"H  c #7C734C",
"J  c #656565",
"K  c #6A6864",
"L  c #616268",
"P  c #66676D",
"I  c #6F6C68",
"U  c #6D6C6B",
"Y  c #6C6C6D",
"T  c #6D6D6F",
"R  c #706E6A",
"E  c #706E6B",
"W  c #716F6B",
"Q  c #6C6D70",
"!  c #777570",
"~  c #797773",
"^  c #85783F",
"/  c #8A7E41",
"(  c #A98F16",
")  c #A38B1A",
"_  c #AA901B",
"`  c #BAA21B",
"'  c #9B8622",
"]  c #938231",
"[  c #B49C28",
"{  c #B29D3B",
"}  c #B9A33C",
"|  c #C2A626",
" . c #C7AB27",
".. c #C1A72A",
"X. c #CBAE28",
"o. c #C5B229",
"O. c #CFB129",
"+. c #D7B82A",
"@. c #C2A830",
"#. c #E3C32C",
"$. c #ECCC29",
"%. c #F9D52B",
"&. c #FAD52B",
"*. c #FFDC2C",
"=. c #FFDD2D",
"-. c #F6D230",
";. c #F7D530",
":. c #F8D530",
">. c #FBD731",
",. c #FADA32",
"<. c #FEDA32",
"1. c #FFDA32",
"2. c #FFDB32",
"3. c #FFDF33",
"4. c #FFE630",
"5. c #FFE730",
"6. c #FFE532",
"7. c #8B8052",
"8. c #88815F",
"9. c #AD9B43",
"0. c #AE9F5B",
"q. c #BCA747",
"w. c #B4A254",
"e. c #84827D",
"r. c #A79B67",
"t. c #B7AA6B",
"y. c #C6AF43",
"u. c #848484",
"i. c #888580",
"p. c #8D8A85",
"a. c #86878C",
"s. c #928F86",
"d. c #918F89",
"f. c #818490",
"g. c #909090",
"h. c #9B9892",
"j. c #9E9B95",
"k. c #9F9C96",
"l. c #929399",
"z. c #A49E89",
"x. c #B0A98A",
"c. c #A4A19B",
"v. c #A5A29B",
"b. c #A6A39D",
"n. c #A5A5A5",
"m. c #AAA6A0",
"M. c #ACA9A2",
"N. c #A7A8AB",
"B. c gray67",
"V. c #BCB7A7",
"C. c #B5B2AB",
"Z. c #B8B4A9",
"A. c #B9B6AF",
"S. c #A6A9B4",
"D. c #A9AAB1",
"F. c #BAB9B3",
"G. c #BEBAB3",
"H. c #C2BEB7",
"J. c #C6C2BB",
"K. c #C7C3BB",
"L. c #C8C7C2",
"P. c #CDC9C1",
"I. c #CDC9C2",
"U. c #D0CCC4",
"Y. c #D1CDC5",
"T. c #D3CFC7",
"R. c #D4D0C8",
"E. c gray83",
"W. c #DDDDDD",
"Q. c #E9E9EA",
"!. c gray94",
"~. c #F2F4FC",
"^. c #F9FBFF",
"/. c #FAFCFF",
"(. c #FDFDFD",
"). c white",
/* pixels */
"R.R.R.R.R.R.H.t + B R.R.R.R.R.R.R.R.R.R.R.R.R.R.R.R.R.R.R.R.R.R.R.R.R.R.R.R.R.R.R.R.R.R.R.R.R.R.R.R.R.R.R.R.R.R.R.R.R.R.",
"R.R.R.R.R.Y.s .   i Z T.R.R.R.R.R.R.R.R.R.R.R.R.R.R.R.R.R.R.R.R.R.R.R.R.R.R.R.R.R.R.R.R.R.R.R.R.R.R.R.R.R.R.R.R.R.R.R.R.",
"R.R.R.R.R.m.      - o b.R.R.R.R.R.R.R.R.R.R.R.R.R.R.R.R.R.R.R.R.R.R.R.R.R.R.R.R.R.R.R.R.R.R.R.R.R.R.R.R.R.R.R.R.R.R.R.R.",
"R.R.R.R.R.h.T y P n.O i.R.R.R.R.R.R.R.R.R.R.R.R.R.R.R.R.R.R.R.R.R.R.R.R.R.R.R.R.R.R.R.R.R.R.R.R.R.R.R.R.R.R.R.R.R.R.R.R.",
"R.R.R.R.R.c.C / G Q 8 ~ R.R.R.R.R.R.R.R.R.R.R.R.R.R.k.K K R.R.R.R.R.R.R.R.R.R.R.R.R.R.R.R.R.R.R.R.R.R.R.R.R.R.R.R.R.R.R.",
"R.R.R.R.R.m.' 5.%._ % F R.R.R.R.R.R.p     R.R.R.R.R.K     R.R.R.R.R.R.R.R.R.R.R.R.R.R.R.R.R.R.R.R.R.R.R.R.R.R.R.R.R.R.R.",
"R.R.R.R.R.C.3 ` ) 0.a c I.R.R.R.R.R.p     R.R.R.R.R.k.K K R.R.R.R.R.R.R.R.R.R.R.R.R.R.R.R.R.R.R.R.R.R.R.R.R.R.R.R.R.R.R.",
"R.R.R.R.R.E N.M F./.Y X I R.R.R.R.R.p     R.R.R.R.R.A.k.k.R.R.k.k.A.A.K ! A.R.R.K.k.k.K.R.K.k.k.K.M.k.k.R.R.R.A.k.k.K.R.",
"R.R.R.R.j.N ).).).).E.@ $ M.R.R.R.R.p     R.R.R.R.R.K     R.R.    7 #     # K.R.k.    k.R.k.    k.M.    A R.A.#   l R.R.",
"R.R.R.P.9 u.).).).).(.v d 5 U.R.R.R.p     R.R.R.R.R.K     R.R.      7 :     e.R.k.    k.R.k.    k.R.!     d.7   : K.R.R.",
"R.R.R.p.; !.).).).).).B.r < p.R.R.R.p     R.R.R.R.R.K     R.R.    A R.A.    K R.k.    k.R.k.    k.R.R.n         M.R.R.R.",
"R.R.R.g D ).).).).).).W.> e b R.R.R.p     R.R.R.R.R.K     R.R.    K R.R.    K R.k.    k.R.k.    k.R.R.K.7     e.R.R.R.R.",
"R.R.v.= g.).).).).).).Q.x w 6 R.R.R.p     R.R.R.R.R.K     R.R.    K R.R.    K R.k.    k.R.k.    k.R.R.A.#     A R.R.R.R.",
"R.R.x.h D.).).).).).).L.0 * f R.R.R.p     R.R.R.R.R.K     R.R.    K R.R.    K R.k.    K R.K     k.R.K.7   :     e.R.R.R.",
"R.J.w.4.k S.).).).).~.} 2 1 q.R.R.R.p             k.K     R.R.    K R.R.    K R.K.              k.R.n   # M.n   # M.R.R.",
"H @.#.,.$.& l.).).).^.y.&.>.+.s.R.R.p             k.K     R.R.    K R.R.    K R.R.A     # A     k.e.    e.R.K.7   7 K.R.",
"S O.2.-.3.( a.).).).f.] =.:.3. .7.R.R.R.R.R.R.R.R.R.R.R.R.R.R.R.R.R.R.R.R.R.R.R.R.R.A.k.K.R.R.R.R.R.R.R.R.R.R.R.R.R.R.R.",
"z X.:.<.1.*.8.L J u q { 6.;.[ t.V.R.R.R.R.R.R.R.R.R.R.R.R.R.R.R.R.R.R.R.R.R.R.R.R.R.R.R.R.R.R.R.R.R.R.R.R.R.R.R.R.R.R.R.",
"Z.z.r.9...| m K W R U j o.^ C.R.R.R.R.R.R.R.R.R.R.R.R.R.R.R.R.R.R.R.R.R.R.R.R.R.R.R.R.R.R.R.R.R.R.R.R.R.R.R.R.R.R.R.R.R.",
"R.R.R.R.S 4 R.R.R.R.R.V , G.R.R.R.R.R.R.R.R.R.R.R.R.R.R.R.R.R.R.R.R.R.R.R.R.R.R.R.R.R.R.R.R.R.R.R.R.R.R.R.R.R.R.R.R.R.R."
};
