/* XPM */
static char *_2c6f07ef3b24179ee74633a01e863e96s55gjfGpljq5Fi3[] = {
/* columns rows colors chars-per-pixel */
"52 20 6 1 ",
"  c black",
". c red",
"X c green",
"o c yellow",
"O c blue",
"+ c #D4D0C8",
/* pixels */
"++++++++++++++++++++++++++++++++++++++++++++++++++++",
"++++++++++++++++++++++++++++++++++++++++++++++++++++",
"++++++++++++++++++++++++++++++++++++++++++++++++++++",
"++++++++++++    ++++++++++++++++++++++++++++++++++++",
"++++++++++        ++++++++++++++++++++++++++++++++++",
"+++ +++++   .  X   +++++++++++++++++++++++++++++++++",
"+++ + +    ..  XX  +++     +  +++++++++++++++  +++++",
"+++++      ..  XX  ++  +++++  +++++++++++++++  +++++",
"+++.+++++  .    X  ++  +++++    ++    ++  + +    +++",
"+++.+.+..          ++     ++  +++++++  +    +  +++++",
"+++++....   O  o   +++     +  ++++     +  +++  +++++",
"+++O+++++  OO  oo  ++++++  +  +++  ++  +  +++  +++++",
"+++O+O+OO  OO  oo  ++++++  +  +++  ++  +  +++  +++++",
"+++++OOOO  O    o  ++     +++   ++     +  ++++   +++",
"+++ +++++          +++++++++++++++++++++++++++++++++",
"+++ + +     ++++   +++++++++++++++++++++++++++++++++",
"+++++     ++++++++ +++++++++++++++++++++++++++++++++",
"++++++++++++++++++++++++++++++++++++++++++++++++++++",
"++++++++++++++++++++++++++++++++++++++++++++++++++++",
"++++++++++++++++++++++++++++++++++++++++++++++++++++"
};
